<svg width="178" height="398" viewBox="0 0 178 398" fill="none" xmlns="http://www.w3.org/2000/svg">
<path d="M129.103 51.3794C135.186 51.3794 139.916 54.4095 139.916 57.7763C139.916 61.4798 135.186 64.1733 129.103 64.1733C123.021 64.1733 118.29 61.1432 118.29 57.7763C118.29 54.4095 123.359 51.3794 129.103 51.3794Z" fill="#002F68"/>
<path d="M129.441 51.3794C133.834 51.3794 137.551 53.3995 137.551 55.7562C137.551 58.113 133.834 60.1331 129.441 60.1331C125.048 60.1331 121.331 58.113 121.331 55.7562C121.331 53.3995 125.048 51.3794 129.441 51.3794Z" fill="#DF8083"/>
<path d="M129.103 62.49C129.103 62.49 127.076 68.2136 127.076 75.2839C126.738 82.3541 127.414 93.8013 123.021 98.8515C118.628 104.238 114.573 97.5047 114.573 90.0978C114.235 82.6908 118.628 58.1132 118.628 58.1132L129.103 62.49Z" fill="#002F68"/>
<path d="M128.09 75.2842C128.09 75.2842 126.738 73.6008 124.711 74.2741C123.359 74.6108 120.656 76.2942 119.642 76.2942C118.628 76.2942 116.263 74.2741 116.263 74.2741L117.277 68.2139C117.277 68.2139 111.194 70.5706 110.18 75.9575C108.829 81.3444 106.463 82.3544 101.057 84.3745C95.65 86.3946 89.9055 90.0981 89.9055 90.0981L98.3534 103.565C98.3534 103.565 111.87 91.4448 113.222 90.0981C114.573 88.7514 119.304 84.0379 120.318 83.0278C120.994 82.0178 123.697 79.3243 124.711 78.651C125.387 77.3043 128.09 75.2842 128.09 75.2842Z" fill="#FFC5B3"/>
<path d="M126.738 284.362C126.738 284.362 110.18 315.336 106.463 328.467C104.436 335.537 99.7048 361.798 99.7048 361.798C99.7048 361.798 102.746 357.758 107.477 356.411C110.518 355.738 114.911 355.065 117.614 358.768C122.345 364.828 123.021 369.205 115.587 375.939C112.546 378.969 106.801 383.683 102.07 388.059C96.3257 393.11 89.5673 398.16 83.8227 397.823C77.7402 397.486 73.6853 394.456 74.0232 387.386C74.3611 383.346 77.4023 376.949 77.4023 374.592C78.0782 368.195 79.4298 328.467 82.1331 303.889C83.4848 291.432 86.864 284.362 86.864 284.362H126.738Z" fill="#FFC5B3"/>
<path d="M57.4655 245.307C57.4655 245.307 40.9076 276.282 37.1906 289.412C35.1631 296.483 28.0668 326.11 28.0668 326.11C28.0668 326.11 37.5284 318.367 46.6522 321.734C55.1001 324.764 50.7072 330.824 43.6109 337.221C40.5697 340.251 36.1768 343.281 31.446 347.321C25.7014 352.372 24.0119 354.055 20.6327 355.065C14.8881 356.748 7.79187 356.075 8.12979 349.005C8.4677 344.965 8.80563 337.894 9.14355 335.538C9.81938 329.141 11.1711 289.412 13.8744 264.835C15.2261 252.378 18.6052 245.307 18.6052 245.307H57.4655Z" fill="#FFC5B3"/>
<path d="M87.2017 209.956C87.2017 209.956 111.87 244.297 119.304 258.774C121.669 263.488 128.09 273.925 128.09 278.975C128.09 284.699 126.062 291.432 126.062 291.432C126.062 291.432 111.194 303.553 99.0288 301.533C84.8363 299.176 80.4434 291.096 80.4434 291.096C80.4434 291.096 60.5064 266.855 52.0585 258.774C43.6106 250.694 29.4182 233.86 24.6873 221.74C20.9703 212.649 18.2669 189.418 24.6873 182.011C31.1077 174.604 87.2017 209.956 87.2017 209.956Z" fill="url(#paint0_linear_42_3552)"/>
<path d="M56.4515 193.459L54.7619 242.951C54.7619 242.951 53.0723 260.795 52.0585 267.528C46.314 273.252 39.8936 275.945 33.8111 275.272C20.6324 273.252 11.1707 264.498 11.1707 264.498C11.1707 264.498 -2.34586 212.986 0.357466 201.539C3.06079 190.092 12.1845 177.298 12.1845 177.298L56.4515 193.459Z" fill="url(#paint1_linear_42_3552)"/>
<path d="M83.4847 82.3541C83.4847 82.3541 95.9875 85.7208 100.043 93.4645C104.773 102.218 109.504 117.032 105.111 131.846C100.718 146.66 90.243 171.574 88.2155 176.288C86.5259 181.001 94.2979 189.082 92.6083 192.448C90.5808 195.815 86.5258 200.192 88.8912 201.539C91.2566 202.886 92.6083 210.293 92.6083 210.293C92.6083 210.293 60.5063 224.77 39.8935 216.689C19.6185 208.609 2.72278 192.112 2.72278 192.112C2.72278 192.112 5.08817 182.348 9.14316 176.961C13.1981 171.574 9.819 162.147 13.5361 159.454C17.2531 156.76 24.3494 155.414 23.6735 151.037C22.9977 146.66 19.9564 104.238 30.0939 90.7711C40.2314 77.3039 58.8168 75.6205 58.8168 75.6205L83.4847 82.3541Z" fill="#446381"/>
<path d="M66.9269 16.3644C55.4378 18.0478 46.652 24.108 46.652 31.1783C46.652 31.515 46.652 31.515 46.652 31.8517C46.652 33.1984 47.3279 34.5451 48.0037 35.8918C49.0175 34.2084 50.3691 32.525 52.3966 31.1783C56.1137 28.4848 61.1824 26.4648 66.9269 25.4547V16.3644Z" fill="#0E58C4"/>
<path d="M66.9268 16.7014C55.4376 18.3848 46.9897 24.4451 46.9897 31.5153C46.9897 31.852 46.9897 31.852 46.9897 32.1887C46.9897 33.5354 47.6656 34.8821 48.3414 36.2288C49.3551 34.5454 50.7069 32.8621 52.7344 31.5153C56.1135 28.8219 61.1822 26.8018 66.9268 26.1284V16.7014Z" fill="#37A0F5"/>
<path d="M85.1744 21.415L115.587 38.9224C117.276 39.9324 118.966 38.9224 118.966 36.5656V24.4451C118.966 22.0884 117.614 19.395 115.587 18.3849L85.1744 0.877555C83.4849 -0.132485 81.7953 0.877545 81.7953 3.23431V15.3548C82.1332 17.7115 83.4849 20.405 85.1744 21.415Z" fill="#786D8A"/>
<path d="M114.235 40.9424L117.614 38.9223L116.6 36.5656L112.545 38.249C112.545 38.5856 114.235 40.9424 114.235 40.9424Z" fill="#7A6D8B"/>
<path d="M79.7677 2.56121L83.1469 0.541138L84.4985 1.88784L81.4573 4.91796L79.7677 2.56121Z" fill="#806E8B"/>
<path d="M81.7954 23.435L112.208 40.9423C113.897 41.9524 115.587 40.9423 115.587 38.5856V26.4651C115.587 24.1083 114.235 21.4149 112.208 20.4048L81.7954 2.89745C80.1058 1.88741 78.4163 2.89744 78.4163 5.2542V17.3747C78.7542 19.7315 80.1058 22.4249 81.7954 23.435Z" fill="url(#paint2_linear_42_3552)"/>
<path d="M79.7678 2.56055L67.9408 9.29415L102.408 47.6757L114.235 40.9421L79.7678 2.56055Z" fill="#A676D4"/>
<path d="M112.208 39.9329L107.477 42.6264C106.463 42.9631 105.787 42.6263 105.787 41.2796V35.2194C105.787 34.2094 106.463 32.526 107.477 32.1893L112.208 29.4958C113.221 29.1591 113.897 29.4958 113.897 30.8426V36.9028C113.897 38.2495 113.221 39.5962 112.208 39.9329Z" fill="#41A0E2"/>
<path d="M113.221 29.4965L112.883 29.1586L112.545 29.4965L113.221 29.8344V29.4965Z" fill="#41A0E2"/>
<path d="M106.125 42.6274H106.801L106.125 42.2894V42.6274Z" fill="#41A0E2"/>
<path d="M111.869 39.9329L107.139 42.6264C106.125 42.9631 105.449 42.6263 105.449 41.2796V35.2194C105.449 34.2094 106.125 32.526 107.139 32.1893L111.869 29.4958C112.883 29.1591 113.559 29.4958 113.559 30.8426V36.9028C113.559 37.9129 112.883 39.2596 111.869 39.9329Z" fill="white"/>
<path d="M111.532 34.8825C111.532 36.2293 110.518 37.9127 109.504 38.586C108.491 39.2594 107.477 38.586 107.477 37.2393C107.477 35.8926 108.491 34.2092 109.504 33.5358C110.856 32.5258 111.532 33.1991 111.532 34.8825Z" fill="#786D8A"/>
<path d="M70.3063 30.1686L100.719 47.676C102.408 48.686 104.098 47.676 104.098 45.3192V33.1987C104.098 30.842 102.746 28.1485 100.719 27.1385L70.3063 9.6311C68.6167 8.62105 66.9271 9.63109 66.9271 11.9878V24.1084C66.9271 26.4651 68.2788 29.1586 70.3063 30.1686Z" fill="#002F68"/>
<path d="M97.3392 50.7062L102.746 47.6761C102.746 47.6761 100.718 44.3093 100.381 44.3093L95.9875 45.3194L97.3392 50.7062Z" fill="#002F68"/>
<path d="M62.8722 11.9883L67.9409 9.29492L69.9684 11.315L67.603 14.6818L62.8722 11.9883Z" fill="#002F68"/>
<path d="M66.9269 24.1084V13.6713C65.9132 13.3346 64.8995 13.3346 64.2236 13.3346C63.2099 13.3346 62.5341 14.3446 62.5341 16.028V27.4752C62.5341 29.4953 63.2099 31.5153 64.8995 32.862C65.2374 32.862 65.9133 33.5354 66.5891 33.5354C68.9545 34.5455 75.3748 36.9022 80.4436 39.9323C83.8227 41.9524 90.919 47.3393 94.6361 50.0327C95.9877 51.0428 97.3393 50.0327 97.3393 48.0126V46.6659L69.9682 30.842C68.2787 29.1586 66.9269 26.4651 66.9269 24.1084Z" fill="#002F68"/>
<path d="M95.3125 31.1785C93.285 28.4851 88.2162 23.0982 80.7821 19.058C76.0512 16.3646 70.3066 14.6812 66.9275 13.6711V24.1082C66.9275 26.465 68.2792 29.1585 70.3066 30.1685L97.6778 45.9925V36.2287C97.6778 33.8719 96.3262 32.5252 95.3125 31.1785Z" fill="#002F68"/>
<path d="M75.3746 19.7319C75.3746 19.0586 75.3746 18.3852 75.7125 18.0485C73.3471 17.0385 71.6576 18.7219 71.6576 21.752C71.6576 25.1188 73.6851 29.159 76.3884 30.5057C78.4159 31.8524 80.1054 30.8424 80.7813 28.8223C80.4433 28.8223 80.4434 28.4856 80.1055 28.4856C77.4022 27.1389 75.3746 23.0987 75.3746 19.7319Z" fill="#002F68"/>
<path d="M76.0503 18.0481C75.7124 18.0481 75.7124 17.7114 75.3745 17.7114C75.3745 18.3848 75.0366 18.7214 75.0366 19.3948C75.0366 22.7616 77.0641 26.8018 79.7674 28.1485C80.1053 28.1485 80.1053 28.4852 80.4432 28.4852C80.4432 27.8118 80.7811 27.4752 80.7811 26.8018C80.7811 23.435 78.7537 19.3948 76.0503 18.0481Z" fill="#41A0E2"/>
<path d="M89.5673 27.8125C89.5673 27.1391 89.5673 26.4658 89.9052 26.1291C87.5398 25.119 85.8502 26.8025 85.8502 29.8326C85.8502 33.1994 87.8777 37.2396 90.581 38.5863C92.6085 39.933 94.2982 38.923 94.974 36.9029C94.6361 36.9029 94.636 36.5662 94.2981 36.5662C91.5948 35.2195 89.5673 31.1793 89.5673 27.8125Z" fill="#002F68"/>
<path d="M90.2432 26.1288C89.9053 26.1288 89.9052 25.7921 89.5673 25.7921C89.5673 26.4655 89.2294 26.8022 89.2294 27.4755C89.2294 30.8423 91.2568 34.8824 93.9602 36.2292C94.2981 36.2292 94.2981 36.5659 94.636 36.5659C94.636 35.8925 94.974 35.5558 94.974 34.8825C94.974 31.8523 92.9465 27.8122 90.2432 26.1288Z" fill="#41A0E2"/>
<path d="M92.2707 21.0781L81.1195 14.3445L82.4711 13.6711L93.6224 20.0681L92.2707 21.0781Z" fill="#002F68"/>
<path d="M83.4849 19.3945C77.0645 14.6809 64.2236 16.3643 58.817 27.8115C55.7757 34.2084 60.1686 51.3791 60.8445 63.4996C61.5203 73.2633 58.1412 78.9869 58.1412 78.9869C58.1412 78.9869 58.1412 78.9869 66.5891 82.3537C75.037 85.7205 83.8227 82.3537 83.8227 82.3537L83.4849 67.5397C83.4849 67.5397 92.6085 66.193 93.9602 64.8463C97.6772 61.4795 99.7048 51.0424 98.0152 37.5752C95.3119 17.7111 85.8503 21.0779 83.4849 19.3945Z" fill="#FFC5B3"/>
<path d="M127.752 68.5499C127.752 68.5499 128.428 69.2233 129.103 70.2333C129.779 71.2434 129.441 72.2534 128.765 72.2534C128.428 72.5901 128.09 72.5901 128.09 72.5901C128.09 72.5901 128.765 73.9368 129.441 74.9468C129.779 75.9569 128.427 76.6302 128.09 76.6302C127.752 76.6302 129.103 77.6403 129.103 78.6503C129.103 79.6604 127.076 79.3237 127.076 79.3237C127.076 79.3237 126.4 71.2434 127.752 68.5499Z" fill="#FFC5B3"/>
<path d="M166.612 71.9169C172.694 71.9169 177.425 74.947 177.425 78.3138C177.425 82.0173 172.694 84.7107 166.612 84.7107C160.529 84.7107 155.799 81.6806 155.799 78.3138C155.799 74.6103 160.529 71.9169 166.612 71.9169Z" fill="#002F68"/>
<path d="M166.949 71.9169C171.342 71.9169 175.059 73.937 175.059 76.2937C175.059 78.6505 171.342 80.6706 166.949 80.6706C162.557 80.6706 158.839 78.6505 158.839 76.2937C158.839 73.6003 162.557 71.9169 166.949 71.9169Z" fill="#DD8084"/>
<path d="M166.611 82.6908C166.611 82.6908 164.584 88.4144 164.584 95.4847C164.246 102.555 164.922 114.002 160.529 119.052C156.136 124.439 152.081 117.706 152.081 110.299C151.743 102.892 156.136 78.314 156.136 78.314L166.611 82.6908Z" fill="#002F68"/>
<path d="M94.2981 89.761C101.394 90.4343 115.249 117.705 121.669 131.173C126.4 126.796 135.862 118.715 146.675 111.645C149.716 109.625 147.351 96.4946 153.433 92.7911C153.771 96.4946 157.15 96.4946 159.178 96.1579C163.233 95.8212 164.585 94.8112 164.585 92.1177C165.598 91.781 166.95 91.781 168.302 93.1278C169.653 92.7911 172.357 94.8111 171.681 96.8312C174.384 98.8513 173.708 103.902 172.019 106.258C168.302 111.308 160.867 116.695 156.475 122.419C152.42 127.806 131.469 155.75 116.938 160.127C115.925 159.79 111.87 159.79 109.166 157.097C99.7047 147.67 85.5123 123.766 84.8365 109.625C84.1607 98.178 89.2294 89.0876 94.2981 89.761Z" fill="#FFC5B3"/>
<path d="M91.5946 42.9626C92.6083 39.5958 94.9737 31.8522 95.3116 28.8221C95.9875 25.1186 96.3254 19.7317 91.2566 14.6815C86.1879 9.63132 68.9542 7.94792 62.8717 11.3147C56.7892 15.0182 43.2726 21.4151 48.0035 42.9626C51.7205 60.1333 55.4375 62.1534 60.5063 66.1936C65.2371 69.8971 73.0092 70.5704 73.0092 70.5704C73.0092 70.5704 77.4021 67.2036 78.4159 60.8067C78.7538 58.7866 78.4159 52.3897 78.4159 52.3897C78.4159 52.3897 73.685 43.2994 77.4021 40.2692C81.1191 36.9024 85.1741 42.2893 85.8499 44.646C88.8912 52.3897 87.5395 66.8669 87.5395 66.8669C87.5395 66.8669 92.2704 69.8971 96.6633 68.5503C99.0287 67.877 97.0012 58.1132 97.0012 58.1132C97.0012 58.1132 92.2704 55.7565 91.5946 42.9626Z" fill="#002F68"/>
<path d="M101.732 34.8821L99.7043 35.8921V48.0126L101.732 47.0026V34.8821Z" fill="#EB8382"/>
<path d="M99.7045 35.8925L99.3666 35.5558V47.3396L99.7045 48.0129V35.8925Z" fill="#C37A87"/>
<path d="M99.3667 35.5559L99.7046 35.8926L101.732 34.8826L101.056 34.5459L99.3667 35.5559Z" fill="white"/>
<path d="M100.719 36.2288C99.705 36.9022 97.6776 38.9222 97.0018 39.5956C92.271 43.6358 83.823 46.3292 74.6993 46.3292C65.2377 46.3292 57.1277 43.6358 52.3969 39.5956C51.0452 38.2489 49.6935 36.9022 49.0177 35.5555C48.3419 34.2087 48.004 31.852 47.6661 30.5052L47.3281 32.862L47.6661 39.5956C47.6661 39.9323 47.6661 39.9323 47.6661 40.269C47.6661 48.686 59.831 55.4196 74.6993 55.4196C85.5126 55.4196 94.9742 51.7161 99.3671 46.6659L101.395 36.2288H100.719Z" fill="#C37A87"/>
<path d="M101.056 36.2286C100.381 36.902 98.0152 39.2587 97.0015 39.9321C91.9328 43.9723 83.8227 46.6657 74.0232 46.6657C64.5615 46.6657 56.1137 43.9723 51.0449 39.9321C49.3554 38.5854 48.3416 37.2387 47.3278 35.892C46.652 34.5452 46.3141 33.1985 45.9762 31.8518V39.9321C45.9762 40.2688 45.9762 40.2688 45.9762 40.6055C45.9762 49.0225 58.479 56.0928 73.6852 56.0928C83.1469 56.0928 91.5948 53.3993 96.6636 49.3592C97.3394 48.6858 99.7048 46.6657 100.381 45.9924V36.2286H101.056Z" fill="url(#paint3_linear_42_3552)"/>
<path d="M78.0779 7.27518C74.6987 4.91842 70.3058 4.91841 65.575 7.94853C57.8029 12.3254 49.693 24.1092 48.0034 36.5663C49.693 41.2799 55.7754 43.3 56.7891 42.6266C58.1408 30.5061 65.2371 19.059 74.0229 13.6721C74.0229 13.6721 74.3608 13.6721 74.3608 13.3354C76.7262 11.9887 79.0916 11.3153 81.1191 11.3153C82.1329 11.3153 83.1466 11.3153 83.8224 11.3153C84.8362 11.3153 85.512 11.652 85.512 11.652L78.0779 7.27518Z" fill="#C37A87"/>
<path d="M78.4161 6.93748C74.3611 4.9174 70.3061 4.58074 65.2373 7.27418C57.4653 11.651 49.3553 23.4348 47.6658 35.892C49.0174 40.9422 54.762 42.6256 56.1137 43.2989C57.8032 30.1684 65.2373 18.3846 74.0232 12.9977C74.0232 12.9977 74.3611 12.9977 74.3611 12.6611C76.7265 11.3143 79.0919 10.641 81.1194 10.641C82.809 10.641 84.4985 10.9776 85.8502 11.651L78.4161 6.93748Z" fill="url(#paint4_linear_42_3552)"/>
<path d="M61.5201 225.443C62.8718 228.81 65.2372 235.88 67.6026 238.91C70.9817 243.287 62.8717 244.297 57.4651 245.307C51.7205 245.98 42.2589 239.247 38.8797 233.523C35.8385 227.8 34.8247 219.383 34.8247 219.046C43.2726 224.433 51.7206 227.8 61.5201 225.443Z" fill="url(#paint5_linear_42_3552)"/>
<path d="M20.9703 217.026C21.3082 219.046 21.9839 222.749 22.9977 226.453C24.6872 232.176 21.3081 236.553 16.2394 232.513C11.1706 228.81 6.1019 222.413 4.75024 217.026C3.73649 213.322 3.06069 206.252 2.72278 203.559C7.4536 209.282 13.5361 213.659 20.9703 217.026Z" fill="url(#paint6_linear_42_3552)"/>
<defs>
<linearGradient id="paint0_linear_42_3552" x1="32.7392" y1="207.561" x2="104.365" y2="210.68" gradientUnits="userSpaceOnUse">
<stop stop-color="#4499D9"/>
<stop offset="1" stop-color="#6E6CC1"/>
</linearGradient>
<linearGradient id="paint1_linear_42_3552" x1="6.27239" y1="198.875" x2="44.0079" y2="199.94" gradientUnits="userSpaceOnUse">
<stop stop-color="#4499D9"/>
<stop offset="1" stop-color="#6E6CC1"/>
</linearGradient>
<linearGradient id="paint2_linear_42_3552" x1="97.0016" y1="2.50745" x2="97.0016" y2="41.3323" gradientUnits="userSpaceOnUse">
<stop stop-color="#6379E3"/>
<stop offset="1" stop-color="#D574C9"/>
</linearGradient>
<linearGradient id="paint3_linear_42_3552" x1="73.5163" y1="31.8518" x2="73.5163" y2="56.0928" gradientUnits="userSpaceOnUse">
<stop stop-color="#EB8382"/>
<stop offset="1" stop-color="#EB8382" stop-opacity="0"/>
</linearGradient>
<linearGradient id="paint4_linear_42_3552" x1="66.758" y1="5.33826" x2="66.758" y2="43.2989" gradientUnits="userSpaceOnUse">
<stop stop-color="#EB8382"/>
<stop offset="1" stop-color="#EB8382" stop-opacity="0"/>
</linearGradient>
<linearGradient id="paint5_linear_42_3552" x1="38.5554" y1="224.834" x2="60.9298" y2="226.234" gradientUnits="userSpaceOnUse">
<stop stop-color="#4499D9"/>
<stop offset="1" stop-color="#6E6CC1"/>
</linearGradient>
<linearGradient id="paint6_linear_42_3552" x1="5.02438" y1="210.274" x2="18.8668" y2="210.735" gradientUnits="userSpaceOnUse">
<stop stop-color="#4499D9"/>
<stop offset="1" stop-color="#6E6CC1"/>
</linearGradient>
</defs>
</svg>
