<svg width="289" height="389" viewBox="0 0 289 389" fill="none" xmlns="http://www.w3.org/2000/svg">
<path d="M0.215698 3.72803L282.641 166.124V388.484L0.215698 226.089V3.72803Z" fill="#826F8C" fill-opacity="0.9"/>
<path d="M288.964 162.39L282.641 166.123V388.484L288.964 384.751V162.39Z" fill="#446381"/>
<path d="M276.786 170.09V302.153L5.60205 146.058V14.2278L276.786 170.09Z" fill="#506898"/>
<path d="M109.345 205.789L176.321 244.288L197.632 332.252L61.5717 253.854L109.345 205.789Z" fill="#786D8A"/>
<path d="M28.5519 68.8263C28.5519 62.9931 32.2988 60.1932 36.7483 62.7598C37.685 63.4597 38.8559 64.1597 39.7927 65.093C41.6661 62.2931 44.9447 61.5931 48.6917 63.6931C53.1411 66.2597 56.6539 71.8595 58.2932 77.6927C59.6983 76.7594 61.5717 76.7594 63.6794 78.1594C66.7238 80.026 69.534 83.7592 70.9391 87.7258C71.8758 87.7258 72.8125 87.9591 73.9834 88.4257C77.0278 90.059 79.6039 94.2589 80.3064 98.2255L28.5519 68.8263Z" fill="white"/>
<path d="M259.691 202.056C259.457 194.823 255.241 186.423 249.855 183.39C248.684 182.69 247.513 182.223 246.342 182.223C244.001 176.39 240.254 171.024 235.804 168.457C230.652 165.424 226.203 167.057 224.095 171.957C222.456 168.924 220.114 166.357 217.538 164.957C213.791 162.857 210.747 163.557 208.873 166.59C207.702 165.19 206.531 164.024 205.126 163.324C201.613 161.224 198.569 162.624 197.632 166.357L259.691 202.056Z" fill="white"/>
<path d="M82.4139 112.459C82.8823 108.959 85.2241 107.325 88.2685 109.192C89.6736 109.892 90.8446 111.292 92.0155 112.925C93.1864 110.592 95.7624 109.892 98.3384 111.525C101.617 113.392 104.427 117.825 105.364 122.258C106.066 122.025 107.237 122.258 108.174 122.725C110.282 123.892 112.155 126.925 112.858 129.958L82.4139 112.459Z" fill="white"/>
<path d="M178.898 185.723C179.366 182.457 181.474 181.057 184.284 182.69C185.455 183.39 186.626 184.79 187.562 186.19C188.733 184.09 190.841 183.39 193.417 184.79C196.461 186.423 199.037 190.623 199.74 194.59C200.443 194.356 201.379 194.59 202.316 195.056C204.424 196.223 206.063 199.023 206.766 201.589L178.898 185.723Z" fill="white"/>
<path d="M16.6085 97.2924C17.0769 94.0258 19.1846 92.6259 21.9948 94.2592C23.1657 94.9592 24.3366 96.3591 25.2733 97.7591C26.4442 95.6591 28.5519 94.9592 31.1279 96.3591C34.1723 97.9924 36.7483 102.192 37.4508 106.159C38.1534 105.926 39.0901 106.159 40.0269 106.626C42.1345 107.792 43.7738 110.592 44.4763 113.159L16.6085 97.2924Z" fill="white"/>
<path d="M160.631 161.924C161.1 158.657 163.207 157.257 166.018 158.891C167.189 159.591 168.359 160.99 169.296 162.39C170.467 160.29 172.575 159.59 175.151 160.99C178.195 162.624 180.771 166.824 181.474 170.79C182.176 170.557 183.113 170.79 184.05 171.257C186.157 172.423 187.797 175.223 188.499 177.79L160.631 161.924Z" fill="white"/>
<path d="M198.569 223.522C199.506 219.789 202.784 222.589 205.595 224.222C203.955 219.089 205.126 213.956 209.107 216.756C209.107 214.422 209.81 212.089 211.683 212.789C212.152 212.789 212.386 213.022 212.854 213.489C212.386 211.389 212.62 209.523 213.557 208.356C216.133 205.789 220.114 209.989 221.285 214.889C224.329 214.422 228.545 215.589 230.418 221.189C235.57 220.256 240.722 231.922 238.38 235.655C241.659 238.222 243.532 244.988 240.722 245.922C246.108 253.388 245.874 263.654 240.02 264.121C240.722 271.354 235.336 274.154 230.652 266.921C229.95 267.154 229.481 267.388 228.779 267.388C228.076 271.121 227.374 275.787 227.374 279.521C227.14 286.287 227.374 294.687 227.374 302.62C227.374 309.387 228.31 318.72 228.545 321.286L217.304 314.753C218.006 313.12 219.646 307.987 220.114 302.853C220.582 296.787 220.817 280.221 218.943 275.787C217.07 271.588 211.683 263.421 210.044 257.355C209.342 255.021 208.873 252.688 208.639 250.821C204.19 247.788 199.74 240.322 202.784 234.955C200.208 231.922 197.867 227.022 198.569 223.522ZM212.152 259.221C214.962 264.354 220.348 272.988 220.348 272.988C220.348 272.988 220.348 266.921 220.817 261.788C220.582 261.321 220.582 260.855 220.348 260.621C218.475 260.855 216.367 258.988 214.494 255.955C213.791 255.021 213.089 253.855 212.62 252.688C211.918 252.921 210.981 252.921 210.278 252.455C210.513 254.321 210.981 256.888 212.152 259.221Z" fill="#EFC8C5"/>
<path d="M90.8447 150.957C89.9079 146.057 86.6294 145.124 83.8192 143.724C85.4585 140.457 84.2875 133.924 80.3064 132.291C80.3064 129.958 79.6039 126.924 77.7304 125.291C77.262 125.058 77.0278 124.825 76.5595 124.825C77.0278 123.425 76.7937 121.091 75.857 118.758C73.2809 113.391 69.2998 112.925 68.1289 116.425C65.0845 112.458 60.8692 108.725 58.9957 112.225C53.8437 105.225 48.6917 111.058 51.0335 117.591C47.7549 116.191 45.8815 121.091 48.6917 125.291C43.3055 126.458 43.5396 136.958 49.3942 144.424C48.6916 150.957 54.0779 159.824 58.7615 158.19C59.4641 159.124 59.9325 160.057 60.635 160.99C61.3376 165.423 62.0401 171.023 62.0401 174.756C62.2743 181.756 62.0401 189.923 62.0401 197.856C62.0401 204.622 61.1033 212.789 60.8692 215.122L72.11 221.655C71.4075 219.322 69.7681 212.089 69.2998 206.489C68.8314 199.722 68.5972 182.923 70.4707 181.056C72.3442 179.19 77.7304 176.856 79.3697 172.89C80.0723 171.257 80.5406 169.623 80.7747 168.223C85.2242 170.323 89.6737 167.757 86.6293 159.357C89.2053 157.724 91.7814 155.624 90.8447 150.957ZM77.262 171.257C74.4518 173.357 69.0656 175.456 69.0656 175.456C69.0656 175.456 69.0656 169.39 68.5973 163.79C68.8314 163.557 68.8314 163.323 69.0656 163.09C70.939 165.657 73.0467 166.123 74.9202 165.19C75.6227 164.957 76.3253 164.723 76.7937 164.023C77.4962 164.957 78.433 165.89 79.1355 166.59C78.9013 168.457 78.4329 170.323 77.262 171.257Z" fill="#EFC8C5"/>
<path d="M204.189 300.053C203.955 298.887 204.189 297.72 204.892 297.02C206.063 295.853 207.702 296.553 209.107 297.953C209.341 296.32 209.81 294.92 210.98 295.153C211.917 295.387 212.854 296.32 213.791 297.487C213.557 296.087 213.791 294.92 214.493 294.22C215.43 292.82 217.303 293.287 218.943 294.453C220.582 295.62 221.753 297.953 222.455 300.287C222.924 300.52 223.392 300.987 224.095 301.453C225.266 302.153 226.202 302.853 227.139 304.02C228.544 305.887 229.013 307.986 228.778 309.853C230.652 311.02 232.76 312.886 233.696 315.92C234.633 319.42 233.228 320.586 231.354 320.819C231.823 322.219 232.057 323.619 231.589 324.786C230.886 327.586 228.31 326.653 226.202 325.253C224.563 327.353 221.05 325.486 218.709 322.219C216.835 323.153 212.854 320.819 211.215 316.853C209.81 318.253 207.702 317.786 205.594 315.22C203.252 312.42 203.252 309.386 204.189 307.52C203.252 306.587 202.55 304.953 202.316 303.553C201.379 300.753 202.55 299.587 204.189 300.053Z" fill="#F5E2E1"/>
<path d="M54.078 203.923C53.8438 202.756 54.078 201.589 54.7806 200.889C55.9515 199.723 57.5908 200.423 58.9959 201.823C59.23 200.189 59.6984 198.79 60.8693 199.023C61.806 199.256 62.7428 200.189 63.6795 201.356C63.4453 199.956 63.6795 198.79 64.382 198.09C65.3188 196.69 67.1923 197.156 68.8316 198.323C70.4709 199.49 71.6418 201.823 72.3443 204.156C72.8127 204.389 73.281 204.856 73.9836 205.323C75.1545 206.023 76.0913 206.723 77.028 207.889C78.4331 209.756 78.9014 211.856 78.6672 213.722C80.5407 214.889 82.6484 216.756 83.5851 219.789C84.5218 223.289 83.1167 224.456 81.2433 224.689C81.7116 226.089 81.9458 227.489 81.4775 228.655C80.7749 231.455 78.1989 230.522 76.0912 229.122C74.4519 231.222 70.9392 229.355 68.5974 226.089C66.7239 227.022 62.7428 224.689 61.1035 220.722C59.6984 222.122 57.5908 221.656 55.4831 219.089C53.1413 216.289 53.1413 213.256 54.078 211.389C53.1413 210.456 52.4387 208.823 52.2046 207.423C51.2678 204.623 52.6729 203.223 54.078 203.923Z" fill="#F5E2E1"/>
<path d="M27.1467 202.289C26.9125 201.589 27.1467 200.656 27.6151 200.422C28.3176 199.723 29.2544 200.189 30.1911 201.122C30.1911 200.189 30.6595 199.256 31.362 199.489C31.8304 199.489 32.5329 200.189 33.0012 200.889C32.7671 199.956 33.0013 199.256 33.4696 198.789C34.1722 197.856 35.1089 198.089 36.2798 199.023C37.2165 199.723 38.1533 201.122 38.6216 202.522C38.8558 202.756 39.3242 202.989 39.7925 203.222C40.4951 203.689 40.9635 203.922 41.6661 204.856C42.6028 206.022 42.837 207.422 42.6028 208.589C43.7737 209.289 45.1788 210.456 45.6471 212.322C46.3497 214.655 45.413 215.355 44.2421 215.355C44.4763 216.055 44.7104 216.989 44.4762 217.689C44.0078 219.322 42.3686 218.855 40.9635 217.922C40.0267 219.089 37.6849 217.922 36.2798 216.055C35.1089 216.522 32.5329 215.122 31.5961 212.556C30.6594 213.489 29.2543 213.255 28.0834 211.622C26.6783 209.989 26.6783 208.122 27.1467 206.722C26.6783 206.022 26.2099 205.089 25.9757 204.389C25.5074 202.756 26.2099 201.822 27.1467 202.289Z" fill="#F5E2E1"/>
<path d="M193.417 273.221C193.183 272.521 193.417 271.587 193.886 271.354C194.588 270.654 195.525 271.121 196.462 272.054C196.462 271.121 196.93 270.187 197.633 270.421C198.101 270.421 198.803 271.121 199.272 271.821C199.038 270.887 199.272 270.187 199.74 269.721C200.443 268.787 201.379 269.021 202.55 269.954C203.487 270.654 204.424 272.054 204.892 273.454C205.126 273.687 205.595 273.921 206.063 274.154C206.766 274.621 207.234 274.854 207.937 275.787C208.873 276.954 209.107 278.354 208.873 279.52C210.044 280.22 211.449 281.387 211.918 283.254C212.62 285.587 211.684 286.287 210.513 286.287C210.747 286.987 210.981 287.92 210.747 288.62C210.278 290.254 208.639 289.787 207.234 288.854C206.297 290.02 203.955 288.854 202.55 286.987C201.379 287.454 198.803 286.054 197.867 283.487C196.93 284.42 195.525 284.187 194.354 282.554C192.949 280.92 192.949 279.054 193.417 277.654C192.949 276.954 192.48 276.021 192.246 275.321C191.544 273.454 192.246 272.754 193.417 273.221Z" fill="#F5E2E1"/>
<path d="M17.5453 172.424C17.3111 171.49 17.5453 170.557 18.0137 170.09C18.9504 169.157 20.1213 169.857 21.2923 171.024C21.5264 169.857 21.7606 168.69 22.9316 168.69C23.6341 168.69 24.5708 169.624 25.0392 170.557C24.805 169.39 25.0392 168.457 25.5076 167.757C26.2101 166.824 27.6152 166.824 29.0203 167.99C30.1913 168.924 31.3621 170.79 31.8305 172.657C32.2989 172.89 32.5331 173.124 33.2356 173.59C34.1724 174.057 34.8749 174.523 35.5775 175.69C36.5142 177.323 36.9826 178.957 36.9826 180.357C38.6218 181.29 40.2611 182.69 40.9636 185.257C41.6662 188.056 40.4953 188.99 39.0902 189.223C39.5586 190.156 39.5586 191.323 39.3244 192.256C38.6218 194.356 36.7484 193.89 34.8749 192.49C33.4698 194.123 30.6596 192.723 29.0203 190.156C27.6152 190.856 24.3367 188.99 23.1658 185.723C21.9948 186.89 20.3556 186.423 18.4821 184.557C16.6086 182.223 16.6086 179.89 17.3112 178.257C16.6086 177.557 15.9061 176.157 15.6719 175.223C15.4377 172.89 16.3744 171.957 17.5453 172.424Z" fill="#F5E2E1"/>
<path d="M240.956 302.153C240.722 301.22 240.956 300.287 241.425 299.82C242.361 298.887 243.532 299.587 244.703 300.753C244.937 299.587 245.172 298.42 246.342 298.42C247.045 298.42 247.982 299.353 248.45 300.287C248.216 299.12 248.45 298.187 248.918 297.487C249.621 296.553 251.026 296.553 252.431 297.72C253.602 298.653 254.773 300.52 255.241 302.387C255.71 302.62 255.944 302.853 256.647 303.32C257.583 303.787 258.286 304.253 258.988 305.42C259.925 307.053 260.393 308.686 260.393 310.086C262.033 311.02 263.672 312.42 264.375 314.986C265.077 317.786 263.906 318.719 262.501 318.953C262.969 319.886 262.969 321.053 262.735 321.986C262.033 324.086 260.159 323.619 258.286 322.219C256.881 323.853 254.071 322.453 252.431 319.886C251.026 320.586 247.748 318.719 246.577 315.453C245.406 316.62 243.766 316.153 241.893 314.286C240.02 311.953 240.02 309.62 240.722 307.986C240.02 307.286 239.317 305.886 239.083 304.953C238.849 302.62 239.785 301.687 240.956 302.153Z" fill="#F5E2E1"/>
<path d="M138.618 237.522L143.536 225.156L145.644 226.322L143.302 240.089C141.897 239.389 140.257 238.455 138.618 237.522Z" fill="white"/>
<path d="M132.295 252.922L137.447 240.089C139.087 241.022 140.96 241.955 142.833 242.889L140.257 257.355C137.681 255.955 135.105 254.322 132.295 252.922Z" fill="white"/>
<path d="M125.27 269.954L131.358 255.255C134.169 256.888 136.979 258.521 139.789 260.155L136.276 276.721C132.764 274.388 129.017 272.054 125.27 269.954Z" fill="white"/>
<path d="M135.808 280.687L132.764 294.92L118.244 286.52L123.865 273.221C127.846 275.554 131.827 278.121 135.808 280.687Z" fill="white"/>
<path d="M288.964 162.391L282.641 166.124L0.215698 3.7281L6.53868 -0.00512695L288.964 162.391Z" fill="#826F8C"/>
</svg>
